<svg xmlns="http://www.w3.org/2000/svg" viewBox="0 0 276 512.8" width="442" height="820" role="img" aria-label="Conquian setup diagram">
<title>Conquian setup</title>
<rect x="123.0" y="8.0" width="30" height="42" rx="3" fill="#ffffff" stroke="#5b6672" stroke-width="1"/>
<rect x="123.0" y="9.6" width="30" height="42" rx="3" fill="#ffffff" stroke="#5b6672" stroke-width="1"/>
<rect x="123.0" y="11.2" width="30" height="42" rx="3" fill="#ffffff" stroke="#5b6672" stroke-width="1"/>
<rect x="123.0" y="12.8" width="30" height="42" rx="3" fill="#ffffff" stroke="#5b6672" stroke-width="1"/>
<rect x="123.0" y="14.4" width="30" height="42" rx="3" fill="#ffffff" stroke="#5b6672" stroke-width="1"/>
<rect x="123.0" y="16.0" width="30" height="42" rx="3" fill="#ffffff" stroke="#5b6672" stroke-width="1"/>
<rect x="123.0" y="17.6" width="30" height="42" rx="3" fill="#ffffff" stroke="#5b6672" stroke-width="1"/>
<text x="138.0" y="42.6" text-anchor="middle" font-family="system-ui, sans-serif" font-size="11" fill="#5b6672">10</text>
<rect x="123.0" y="105.6" width="30" height="42" rx="3" fill="none" stroke="#5b6672" stroke-width="1" stroke-dasharray="4 3" opacity="0.55"/>
<rect x="123.0" y="193.6" width="30" height="42" rx="3" fill="#c3ccd6" stroke="#5b6672" stroke-width="1"/>
<rect x="123.0" y="195.2" width="30" height="42" rx="3" fill="#c3ccd6" stroke="#5b6672" stroke-width="1"/>
<rect x="123.0" y="196.8" width="30" height="42" rx="3" fill="#c3ccd6" stroke="#5b6672" stroke-width="1"/>
<rect x="123.0" y="198.4" width="30" height="42" rx="3" fill="#c3ccd6" stroke="#5b6672" stroke-width="1"/>
<rect x="123.0" y="200.0" width="30" height="42" rx="3" fill="#c3ccd6" stroke="#5b6672" stroke-width="1"/>
<rect x="123.0" y="201.6" width="30" height="42" rx="3" fill="#c3ccd6" stroke="#5b6672" stroke-width="1"/>
<rect x="123.0" y="203.2" width="30" height="42" rx="3" fill="#c3ccd6" stroke="#5b6672" stroke-width="1"/>
<text x="138.0" y="228.2" text-anchor="middle" font-family="system-ui, sans-serif" font-size="11" fill="#5b6672">20</text>
<rect x="123.0" y="291.2" width="30" height="42" rx="3" fill="none" stroke="#5b6672" stroke-width="1" stroke-dasharray="4 3" opacity="0.55"/>
<rect x="123.0" y="379.2" width="30" height="42" rx="3" fill="#ffffff" stroke="#5b6672" stroke-width="1"/>
<rect x="123.0" y="380.8" width="30" height="42" rx="3" fill="#ffffff" stroke="#5b6672" stroke-width="1"/>
<rect x="123.0" y="382.4" width="30" height="42" rx="3" fill="#ffffff" stroke="#5b6672" stroke-width="1"/>
<rect x="123.0" y="384.0" width="30" height="42" rx="3" fill="#ffffff" stroke="#5b6672" stroke-width="1"/>
<rect x="123.0" y="385.6" width="30" height="42" rx="3" fill="#ffffff" stroke="#5b6672" stroke-width="1"/>
<rect x="123.0" y="387.2" width="30" height="42" rx="3" fill="#ffffff" stroke="#5b6672" stroke-width="1"/>
<rect x="123.0" y="388.8" width="30" height="42" rx="3" fill="#ffffff" stroke="#5b6672" stroke-width="1"/>
<text x="138.0" y="413.8" text-anchor="middle" font-family="system-ui, sans-serif" font-size="11" fill="#5b6672">10</text>
<text x="138.0" y="67.6" text-anchor="middle" font-family="system-ui, sans-serif" font-size="8" fill="#5b6672">Opponent</text>
<text x="138.0" y="155.6" text-anchor="middle" font-family="system-ui, sans-serif" font-size="8" fill="#5b6672">Opponent's</text>
<text x="138.0" y="164.6" text-anchor="middle" font-family="system-ui, sans-serif" font-size="8" fill="#5b6672">melds</text>
<text x="138.0" y="253.2" text-anchor="middle" font-family="system-ui, sans-serif" font-size="8" fill="#5b6672">Stock</text>
<text x="138.0" y="341.2" text-anchor="middle" font-family="system-ui, sans-serif" font-size="8" fill="#5b6672">Your</text>
<text x="138.0" y="350.2" text-anchor="middle" font-family="system-ui, sans-serif" font-size="8" fill="#5b6672">melds</text>
<text x="138.0" y="438.8" text-anchor="middle" font-family="system-ui, sans-serif" font-size="8" fill="#5b6672">Your</text>
<text x="138.0" y="447.8" text-anchor="middle" font-family="system-ui, sans-serif" font-size="8" fill="#5b6672">hand</text>
<text x="138.0" y="464.8" text-anchor="middle" font-family="system-ui, sans-serif" font-size="9" fill="#5b6672">Ten cards each and twenty in the stock. Nothing is face</text>
<text x="138.0" y="476.8" text-anchor="middle" font-family="system-ui, sans-serif" font-size="9" fill="#5b6672">up at the start; from the first turn onwards exactly</text>
<text x="138.0" y="488.8" text-anchor="middle" font-family="system-ui, sans-serif" font-size="9" fill="#5b6672">one card is on offer, and refused cards are turned down</text>
<text x="138.0" y="500.8" text-anchor="middle" font-family="system-ui, sans-serif" font-size="9" fill="#5b6672">and dead.</text>
</svg>