<svg xmlns="http://www.w3.org/2000/svg" viewBox="0 0 276 291.2" width="276" height="291.2" role="img" aria-label="Cribbage setup diagram">
<title>Cribbage setup</title>
<rect x="123.0" y="8.0" width="30" height="42" rx="3" fill="#ffffff" stroke="#5b6672" stroke-width="1"/>
<rect x="123.0" y="9.6" width="30" height="42" rx="3" fill="#ffffff" stroke="#5b6672" stroke-width="1"/>
<rect x="123.0" y="11.2" width="30" height="42" rx="3" fill="#ffffff" stroke="#5b6672" stroke-width="1"/>
<rect x="123.0" y="12.8" width="30" height="42" rx="3" fill="#ffffff" stroke="#5b6672" stroke-width="1"/>
<rect x="63.0" y="92.8" width="30" height="42" rx="3" fill="#c3ccd6" stroke="#5b6672" stroke-width="1"/>
<rect x="63.0" y="94.4" width="30" height="42" rx="3" fill="#c3ccd6" stroke="#5b6672" stroke-width="1"/>
<rect x="63.0" y="96.0" width="30" height="42" rx="3" fill="#c3ccd6" stroke="#5b6672" stroke-width="1"/>
<rect x="63.0" y="97.6" width="30" height="42" rx="3" fill="#c3ccd6" stroke="#5b6672" stroke-width="1"/>
<rect x="63.0" y="99.2" width="30" height="42" rx="3" fill="#c3ccd6" stroke="#5b6672" stroke-width="1"/>
<rect x="63.0" y="100.8" width="30" height="42" rx="3" fill="#c3ccd6" stroke="#5b6672" stroke-width="1"/>
<rect x="63.0" y="102.4" width="30" height="42" rx="3" fill="#c3ccd6" stroke="#5b6672" stroke-width="1"/>
<text x="78.0" y="127.4" text-anchor="middle" font-family="system-ui, sans-serif" font-size="11" fill="#5b6672">39</text>
<rect x="103.0" y="92.8" width="30" height="42" rx="3" fill="#f4f0e6" stroke="#5b6672" stroke-width="1"/>
<rect x="183.0" y="92.8" width="30" height="42" rx="3" fill="#c3ccd6" stroke="#5b6672" stroke-width="1"/>
<rect x="183.0" y="94.4" width="30" height="42" rx="3" fill="#c3ccd6" stroke="#5b6672" stroke-width="1"/>
<rect x="183.0" y="96.0" width="30" height="42" rx="3" fill="#c3ccd6" stroke="#5b6672" stroke-width="1"/>
<rect x="183.0" y="97.6" width="30" height="42" rx="3" fill="#c3ccd6" stroke="#5b6672" stroke-width="1"/>
<rect x="123.0" y="182.4" width="30" height="42" rx="3" fill="#ffffff" stroke="#5b6672" stroke-width="1"/>
<rect x="123.0" y="184.0" width="30" height="42" rx="3" fill="#ffffff" stroke="#5b6672" stroke-width="1"/>
<rect x="123.0" y="185.6" width="30" height="42" rx="3" fill="#ffffff" stroke="#5b6672" stroke-width="1"/>
<rect x="123.0" y="187.2" width="30" height="42" rx="3" fill="#ffffff" stroke="#5b6672" stroke-width="1"/>
<text x="138.0" y="64.8" text-anchor="middle" font-family="system-ui, sans-serif" font-size="8" fill="#5b6672">Non-dealer's hand</text>
<text x="78.0" y="154.4" text-anchor="middle" font-family="system-ui, sans-serif" font-size="8" fill="#5b6672">Stock</text>
<text x="118.0" y="154.4" text-anchor="middle" font-family="system-ui, sans-serif" font-size="8" fill="#5b6672">Starter</text>
<text x="198.0" y="154.4" text-anchor="middle" font-family="system-ui, sans-serif" font-size="8" fill="#5b6672">Crib</text>
<text x="138.0" y="239.2" text-anchor="middle" font-family="system-ui, sans-serif" font-size="8" fill="#5b6672">Dealer's hand</text>
<text x="138.0" y="255.2" text-anchor="middle" font-family="system-ui, sans-serif" font-size="9" fill="#5b6672">Six cards are dealt to each player; after both discard</text>
<text x="138.0" y="267.2" text-anchor="middle" font-family="system-ui, sans-serif" font-size="9" fill="#5b6672">two, the crib sits face down on the dealer's side and</text>
<text x="138.0" y="279.2" text-anchor="middle" font-family="system-ui, sans-serif" font-size="9" fill="#5b6672">the starter is turned face up on the deck.</text>
</svg>